<mxfile host="app.diagrams.net" modified="2024-02-16T05:14:21.253Z" agent="Mozilla/5.0 (Windows NT 10.0; Win64; x64; rv:109.0) Gecko/20100101 Firefox/113.0" etag="-dnYaujcESTukAKuEOs0" version="23.1.5" type="github">
  <diagram name="Page-1" id="zaVV9nCFNRroj_c9ZAW_">
    <mxGraphModel dx="1134" dy="591" grid="1" gridSize="10" guides="1" tooltips="1" connect="1" arrows="1" fold="1" page="1" pageScale="1" pageWidth="850" pageHeight="1100" math="0" shadow="0">
      <root>
        <mxCell id="0" />
        <mxCell id="1" parent="0" />
        <mxCell id="2f4W0F8X8DcqwCF_kt_t-1" value="increased atmospheric greenhouse gases" style="whiteSpace=wrap;html=1;aspect=fixed;" vertex="1" parent="1">
          <mxGeometry x="370" y="180" width="90" height="90" as="geometry" />
        </mxCell>
        <mxCell id="2f4W0F8X8DcqwCF_kt_t-2" value="increased water temp" style="whiteSpace=wrap;html=1;aspect=fixed;" vertex="1" parent="1">
          <mxGeometry x="550" y="180" width="80" height="80" as="geometry" />
        </mxCell>
        <mxCell id="2f4W0F8X8DcqwCF_kt_t-8" value="" style="endArrow=none;html=1;rounded=0;exitX=1;exitY=0.5;exitDx=0;exitDy=0;" edge="1" parent="1" source="2f4W0F8X8DcqwCF_kt_t-1" target="2f4W0F8X8DcqwCF_kt_t-2">
          <mxGeometry width="50" height="50" relative="1" as="geometry">
            <mxPoint x="610" y="250" as="sourcePoint" />
            <mxPoint x="542" y="223" as="targetPoint" />
          </mxGeometry>
        </mxCell>
        <mxCell id="2f4W0F8X8DcqwCF_kt_t-10" value="increased air temperatures" style="rounded=0;whiteSpace=wrap;html=1;" vertex="1" parent="1">
          <mxGeometry x="355" y="20" width="120" height="60" as="geometry" />
        </mxCell>
        <mxCell id="2f4W0F8X8DcqwCF_kt_t-11" value="" style="endArrow=classic;html=1;rounded=0;exitX=0.5;exitY=0;exitDx=0;exitDy=0;entryX=0.5;entryY=1;entryDx=0;entryDy=0;" edge="1" parent="1" source="2f4W0F8X8DcqwCF_kt_t-1" target="2f4W0F8X8DcqwCF_kt_t-10">
          <mxGeometry width="50" height="50" relative="1" as="geometry">
            <mxPoint x="610" y="250" as="sourcePoint" />
            <mxPoint x="660" y="200" as="targetPoint" />
          </mxGeometry>
        </mxCell>
        <mxCell id="2f4W0F8X8DcqwCF_kt_t-53" style="edgeStyle=orthogonalEdgeStyle;rounded=0;orthogonalLoop=1;jettySize=auto;html=1;exitX=1;exitY=0.5;exitDx=0;exitDy=0;" edge="1" parent="1" source="2f4W0F8X8DcqwCF_kt_t-12" target="2f4W0F8X8DcqwCF_kt_t-40">
          <mxGeometry relative="1" as="geometry" />
        </mxCell>
        <mxCell id="2f4W0F8X8DcqwCF_kt_t-12" value="corals bleach" style="rounded=0;whiteSpace=wrap;html=1;" vertex="1" parent="1">
          <mxGeometry x="950" y="220" width="120" height="60" as="geometry" />
        </mxCell>
        <mxCell id="2f4W0F8X8DcqwCF_kt_t-13" value="" style="endArrow=classic;html=1;rounded=0;exitX=1;exitY=0.5;exitDx=0;exitDy=0;entryX=0;entryY=0.5;entryDx=0;entryDy=0;" edge="1" parent="1" source="2f4W0F8X8DcqwCF_kt_t-2" target="2f4W0F8X8DcqwCF_kt_t-12">
          <mxGeometry width="50" height="50" relative="1" as="geometry">
            <mxPoint x="650" y="250" as="sourcePoint" />
            <mxPoint x="700" y="200" as="targetPoint" />
          </mxGeometry>
        </mxCell>
        <mxCell id="2f4W0F8X8DcqwCF_kt_t-15" value="increased natural disasters" style="rounded=0;whiteSpace=wrap;html=1;" vertex="1" parent="1">
          <mxGeometry x="180" y="390" width="120" height="60" as="geometry" />
        </mxCell>
        <mxCell id="2f4W0F8X8DcqwCF_kt_t-16" value="climate change" style="rounded=0;whiteSpace=wrap;html=1;" vertex="1" parent="1">
          <mxGeometry x="180" y="210" width="120" height="60" as="geometry" />
        </mxCell>
        <mxCell id="2f4W0F8X8DcqwCF_kt_t-17" value="" style="endArrow=classic;html=1;rounded=0;exitX=0;exitY=0.5;exitDx=0;exitDy=0;entryX=0.5;entryY=0;entryDx=0;entryDy=0;" edge="1" parent="1" source="2f4W0F8X8DcqwCF_kt_t-10" target="2f4W0F8X8DcqwCF_kt_t-16">
          <mxGeometry width="50" height="50" relative="1" as="geometry">
            <mxPoint x="470" y="270" as="sourcePoint" />
            <mxPoint x="520" y="220" as="targetPoint" />
          </mxGeometry>
        </mxCell>
        <mxCell id="2f4W0F8X8DcqwCF_kt_t-18" value="" style="endArrow=classic;html=1;rounded=0;exitX=0.5;exitY=1;exitDx=0;exitDy=0;entryX=0.5;entryY=0;entryDx=0;entryDy=0;" edge="1" parent="1" source="2f4W0F8X8DcqwCF_kt_t-16" target="2f4W0F8X8DcqwCF_kt_t-15">
          <mxGeometry width="50" height="50" relative="1" as="geometry">
            <mxPoint x="470" y="350" as="sourcePoint" />
            <mxPoint x="520" y="300" as="targetPoint" />
          </mxGeometry>
        </mxCell>
        <mxCell id="2f4W0F8X8DcqwCF_kt_t-48" style="edgeStyle=orthogonalEdgeStyle;rounded=0;orthogonalLoop=1;jettySize=auto;html=1;exitX=0.5;exitY=0;exitDx=0;exitDy=0;" edge="1" parent="1" source="2f4W0F8X8DcqwCF_kt_t-19" target="2f4W0F8X8DcqwCF_kt_t-46">
          <mxGeometry relative="1" as="geometry" />
        </mxCell>
        <mxCell id="2f4W0F8X8DcqwCF_kt_t-19" value="larger waves" style="rounded=0;whiteSpace=wrap;html=1;" vertex="1" parent="1">
          <mxGeometry x="670" y="390" width="120" height="60" as="geometry" />
        </mxCell>
        <mxCell id="2f4W0F8X8DcqwCF_kt_t-20" value="heavier storms/cyclones" style="rounded=0;whiteSpace=wrap;html=1;" vertex="1" parent="1">
          <mxGeometry x="400" y="390" width="120" height="60" as="geometry" />
        </mxCell>
        <mxCell id="2f4W0F8X8DcqwCF_kt_t-21" value="" style="endArrow=classic;html=1;rounded=0;exitX=1;exitY=0.5;exitDx=0;exitDy=0;entryX=0;entryY=0.5;entryDx=0;entryDy=0;" edge="1" parent="1" source="2f4W0F8X8DcqwCF_kt_t-15" target="2f4W0F8X8DcqwCF_kt_t-20">
          <mxGeometry width="50" height="50" relative="1" as="geometry">
            <mxPoint x="590" y="370" as="sourcePoint" />
            <mxPoint x="640" y="320" as="targetPoint" />
          </mxGeometry>
        </mxCell>
        <mxCell id="2f4W0F8X8DcqwCF_kt_t-22" value="" style="endArrow=classic;html=1;rounded=0;exitX=1;exitY=0.5;exitDx=0;exitDy=0;entryX=0;entryY=0.5;entryDx=0;entryDy=0;" edge="1" parent="1" source="2f4W0F8X8DcqwCF_kt_t-20" target="2f4W0F8X8DcqwCF_kt_t-19">
          <mxGeometry width="50" height="50" relative="1" as="geometry">
            <mxPoint x="590" y="370" as="sourcePoint" />
            <mxPoint x="640" y="320" as="targetPoint" />
          </mxGeometry>
        </mxCell>
        <mxCell id="2f4W0F8X8DcqwCF_kt_t-23" value="more agricultural/industrial runoff from rivers" style="rounded=0;whiteSpace=wrap;html=1;" vertex="1" parent="1">
          <mxGeometry x="520" y="520" width="120" height="60" as="geometry" />
        </mxCell>
        <mxCell id="2f4W0F8X8DcqwCF_kt_t-45" style="edgeStyle=orthogonalEdgeStyle;rounded=0;orthogonalLoop=1;jettySize=auto;html=1;exitX=1;exitY=0.5;exitDx=0;exitDy=0;entryX=0;entryY=0.5;entryDx=0;entryDy=0;" edge="1" parent="1" source="2f4W0F8X8DcqwCF_kt_t-24" target="2f4W0F8X8DcqwCF_kt_t-44">
          <mxGeometry relative="1" as="geometry" />
        </mxCell>
        <mxCell id="2f4W0F8X8DcqwCF_kt_t-24" value="ocean acidity increases" style="rounded=0;whiteSpace=wrap;html=1;" vertex="1" parent="1">
          <mxGeometry x="530" y="20" width="120" height="60" as="geometry" />
        </mxCell>
        <mxCell id="2f4W0F8X8DcqwCF_kt_t-25" value="" style="endArrow=classic;html=1;rounded=0;exitX=1;exitY=0;exitDx=0;exitDy=0;entryX=0.5;entryY=1;entryDx=0;entryDy=0;" edge="1" parent="1" source="2f4W0F8X8DcqwCF_kt_t-1" target="2f4W0F8X8DcqwCF_kt_t-24">
          <mxGeometry width="50" height="50" relative="1" as="geometry">
            <mxPoint x="580" y="170" as="sourcePoint" />
            <mxPoint x="630" y="120" as="targetPoint" />
          </mxGeometry>
        </mxCell>
        <mxCell id="2f4W0F8X8DcqwCF_kt_t-26" value="" style="endArrow=classic;html=1;rounded=0;exitX=0.5;exitY=1;exitDx=0;exitDy=0;entryX=0;entryY=0.5;entryDx=0;entryDy=0;" edge="1" parent="1" source="2f4W0F8X8DcqwCF_kt_t-20" target="2f4W0F8X8DcqwCF_kt_t-23">
          <mxGeometry width="50" height="50" relative="1" as="geometry">
            <mxPoint x="480" y="470" as="sourcePoint" />
            <mxPoint x="530" y="420" as="targetPoint" />
          </mxGeometry>
        </mxCell>
        <mxCell id="2f4W0F8X8DcqwCF_kt_t-27" value="nutrition levels increase" style="rounded=0;whiteSpace=wrap;html=1;" vertex="1" parent="1">
          <mxGeometry x="620" y="630" width="120" height="60" as="geometry" />
        </mxCell>
        <mxCell id="2f4W0F8X8DcqwCF_kt_t-28" value="pollution increase" style="rounded=0;whiteSpace=wrap;html=1;" vertex="1" parent="1">
          <mxGeometry x="670" y="490" width="120" height="60" as="geometry" />
        </mxCell>
        <mxCell id="2f4W0F8X8DcqwCF_kt_t-29" value="" style="endArrow=classic;html=1;rounded=0;entryX=0;entryY=0.5;entryDx=0;entryDy=0;exitX=1;exitY=0.5;exitDx=0;exitDy=0;" edge="1" parent="1" source="2f4W0F8X8DcqwCF_kt_t-23" target="2f4W0F8X8DcqwCF_kt_t-28">
          <mxGeometry width="50" height="50" relative="1" as="geometry">
            <mxPoint x="480" y="510" as="sourcePoint" />
            <mxPoint x="530" y="460" as="targetPoint" />
          </mxGeometry>
        </mxCell>
        <mxCell id="2f4W0F8X8DcqwCF_kt_t-30" value="" style="endArrow=classic;html=1;rounded=0;entryX=0;entryY=0.5;entryDx=0;entryDy=0;exitX=0.5;exitY=1;exitDx=0;exitDy=0;" edge="1" parent="1" source="2f4W0F8X8DcqwCF_kt_t-23" target="2f4W0F8X8DcqwCF_kt_t-27">
          <mxGeometry width="50" height="50" relative="1" as="geometry">
            <mxPoint x="480" y="510" as="sourcePoint" />
            <mxPoint x="530" y="460" as="targetPoint" />
          </mxGeometry>
        </mxCell>
        <mxCell id="2f4W0F8X8DcqwCF_kt_t-43" style="edgeStyle=orthogonalEdgeStyle;rounded=0;orthogonalLoop=1;jettySize=auto;html=1;exitX=1;exitY=0.5;exitDx=0;exitDy=0;entryX=0.5;entryY=1;entryDx=0;entryDy=0;" edge="1" parent="1" source="2f4W0F8X8DcqwCF_kt_t-31" target="2f4W0F8X8DcqwCF_kt_t-40">
          <mxGeometry relative="1" as="geometry" />
        </mxCell>
        <mxCell id="2f4W0F8X8DcqwCF_kt_t-31" value="oceans become dead" style="rounded=0;whiteSpace=wrap;html=1;" vertex="1" parent="1">
          <mxGeometry x="930" y="490" width="120" height="60" as="geometry" />
        </mxCell>
        <mxCell id="2f4W0F8X8DcqwCF_kt_t-32" value="algal blooms" style="rounded=0;whiteSpace=wrap;html=1;" vertex="1" parent="1">
          <mxGeometry x="850" y="630" width="120" height="60" as="geometry" />
        </mxCell>
        <mxCell id="2f4W0F8X8DcqwCF_kt_t-33" value="" style="endArrow=classic;html=1;rounded=0;exitX=1;exitY=0.5;exitDx=0;exitDy=0;entryX=0;entryY=0.5;entryDx=0;entryDy=0;" edge="1" parent="1" source="2f4W0F8X8DcqwCF_kt_t-27" target="2f4W0F8X8DcqwCF_kt_t-32">
          <mxGeometry width="50" height="50" relative="1" as="geometry">
            <mxPoint x="720" y="610" as="sourcePoint" />
            <mxPoint x="770" y="560" as="targetPoint" />
          </mxGeometry>
        </mxCell>
        <mxCell id="2f4W0F8X8DcqwCF_kt_t-34" value="" style="endArrow=classic;html=1;rounded=0;exitX=1;exitY=0.5;exitDx=0;exitDy=0;entryX=0;entryY=0.5;entryDx=0;entryDy=0;" edge="1" parent="1" source="2f4W0F8X8DcqwCF_kt_t-28" target="2f4W0F8X8DcqwCF_kt_t-31">
          <mxGeometry width="50" height="50" relative="1" as="geometry">
            <mxPoint x="720" y="610" as="sourcePoint" />
            <mxPoint x="770" y="560" as="targetPoint" />
          </mxGeometry>
        </mxCell>
        <mxCell id="2f4W0F8X8DcqwCF_kt_t-35" value="" style="endArrow=classic;html=1;rounded=0;exitX=1;exitY=0.5;exitDx=0;exitDy=0;entryX=0.5;entryY=1;entryDx=0;entryDy=0;" edge="1" parent="1" source="2f4W0F8X8DcqwCF_kt_t-32" target="2f4W0F8X8DcqwCF_kt_t-31">
          <mxGeometry width="50" height="50" relative="1" as="geometry">
            <mxPoint x="990" y="650" as="sourcePoint" />
            <mxPoint x="1040" y="600" as="targetPoint" />
          </mxGeometry>
        </mxCell>
        <mxCell id="2f4W0F8X8DcqwCF_kt_t-36" value="" style="endArrow=classic;html=1;rounded=0;entryX=0.5;entryY=1;entryDx=0;entryDy=0;exitX=0.5;exitY=0;exitDx=0;exitDy=0;" edge="1" parent="1" source="2f4W0F8X8DcqwCF_kt_t-31" target="2f4W0F8X8DcqwCF_kt_t-12">
          <mxGeometry width="50" height="50" relative="1" as="geometry">
            <mxPoint x="720" y="410" as="sourcePoint" />
            <mxPoint x="770" y="360" as="targetPoint" />
          </mxGeometry>
        </mxCell>
        <mxCell id="2f4W0F8X8DcqwCF_kt_t-52" style="edgeStyle=orthogonalEdgeStyle;rounded=0;orthogonalLoop=1;jettySize=auto;html=1;exitX=0.5;exitY=0;exitDx=0;exitDy=0;entryX=0.5;entryY=1;entryDx=0;entryDy=0;" edge="1" parent="1" source="2f4W0F8X8DcqwCF_kt_t-40" target="2f4W0F8X8DcqwCF_kt_t-49">
          <mxGeometry relative="1" as="geometry" />
        </mxCell>
        <mxCell id="2f4W0F8X8DcqwCF_kt_t-40" value="corals die" style="rounded=0;whiteSpace=wrap;html=1;" vertex="1" parent="1">
          <mxGeometry x="1150" y="220" width="120" height="60" as="geometry" />
        </mxCell>
        <mxCell id="2f4W0F8X8DcqwCF_kt_t-47" style="edgeStyle=orthogonalEdgeStyle;rounded=0;orthogonalLoop=1;jettySize=auto;html=1;exitX=0.5;exitY=1;exitDx=0;exitDy=0;" edge="1" parent="1" source="2f4W0F8X8DcqwCF_kt_t-44" target="2f4W0F8X8DcqwCF_kt_t-46">
          <mxGeometry relative="1" as="geometry" />
        </mxCell>
        <mxCell id="2f4W0F8X8DcqwCF_kt_t-44" value="corals and other structures weaken" style="rounded=0;whiteSpace=wrap;html=1;" vertex="1" parent="1">
          <mxGeometry x="760" y="20" width="120" height="60" as="geometry" />
        </mxCell>
        <mxCell id="2f4W0F8X8DcqwCF_kt_t-50" style="edgeStyle=orthogonalEdgeStyle;rounded=0;orthogonalLoop=1;jettySize=auto;html=1;exitX=1;exitY=0.5;exitDx=0;exitDy=0;entryX=0.5;entryY=0;entryDx=0;entryDy=0;" edge="1" parent="1" source="2f4W0F8X8DcqwCF_kt_t-46" target="2f4W0F8X8DcqwCF_kt_t-40">
          <mxGeometry relative="1" as="geometry" />
        </mxCell>
        <mxCell id="2f4W0F8X8DcqwCF_kt_t-51" style="edgeStyle=orthogonalEdgeStyle;rounded=0;orthogonalLoop=1;jettySize=auto;html=1;exitX=1;exitY=0.5;exitDx=0;exitDy=0;entryX=0.5;entryY=1;entryDx=0;entryDy=0;" edge="1" parent="1" source="2f4W0F8X8DcqwCF_kt_t-46" target="2f4W0F8X8DcqwCF_kt_t-49">
          <mxGeometry relative="1" as="geometry" />
        </mxCell>
        <mxCell id="2f4W0F8X8DcqwCF_kt_t-46" value="corals are destroyed" style="rounded=0;whiteSpace=wrap;html=1;" vertex="1" parent="1">
          <mxGeometry x="760" y="110" width="120" height="60" as="geometry" />
        </mxCell>
        <mxCell id="2f4W0F8X8DcqwCF_kt_t-49" value="marine ecosystem and habitat is lost" style="rounded=0;whiteSpace=wrap;html=1;" vertex="1" parent="1">
          <mxGeometry x="1070" y="40" width="120" height="60" as="geometry" />
        </mxCell>
      </root>
    </mxGraphModel>
  </diagram>
</mxfile>
